HIERARCHY
ROOT Hips
{
    OFFSET 11.54377555847168 81.08525848388672 -17.08905029296875
    CHANNELS 6 Xposition Yposition Zposition Zrotation Xrotation Yrotation
    JOINT RightUpLeg
    {
        OFFSET -11.54377555847168 0.0 0.0
        CHANNELS 3 Zrotation Xrotation Yrotation
        JOINT RightLeg
        {
            OFFSET 0.0 -38.362632751464844 0.0
            CHANNELS 3 Zrotation Xrotation Yrotation
            JOINT RightFoot
            {
                OFFSET 0.0 -42.722625732421875 0.0
                CHANNELS 3 Zrotation Xrotation Yrotation
                End Site RightFoot_End
                {
                    OFFSET 0.0 0.0 17.08905029296875
                }
            }
        }
    }
    JOINT LeftUpLeg
    {
        OFFSET 11.54377555847168 0.0 0.0
        CHANNELS 3 Zrotation Xrotation Yrotation
        JOINT LeftLeg
        {
            OFFSET 0.0 -38.362632751464844 0.0
            CHANNELS 3 Zrotation Xrotation Yrotation
            JOINT LeftFoot
            {
                OFFSET 0.0 -42.722625732421875 0.0
                CHANNELS 3 Zrotation Xrotation Yrotation
                End Site LeftFoot_End
                {
                    OFFSET 0.0 0.0 17.08905029296875
                }
            }
        }
    }
    JOINT Spine
    {
        OFFSET 0.0 22.190038681030273 0.0
        CHANNELS 3 Zrotation Xrotation Yrotation
        JOINT Spine3
        {
            OFFSET 0.0 25.225337982177734 0.0
            CHANNELS 3 Zrotation Xrotation Yrotation
            JOINT Neck
            {
                OFFSET 0.0 13.990423202514648 0.0
                CHANNELS 3 Zrotation Xrotation Yrotation
                End Site Head
                {
                    OFFSET 0.0 5.596169948577881 0.0
                }
            }
            JOINT LeftArm
            {
                OFFSET 16.194419860839844 0.0 0.0
                CHANNELS 3 Zrotation Xrotation Yrotation
                JOINT LeftForeArm
                {
                    OFFSET 28.731082916259766 0.0 0.0
                    CHANNELS 3 Zrotation Xrotation Yrotation
                    JOINT LeftHand
                    {
                        OFFSET 23.991458892822266 0.0 0.0
                        CHANNELS 3 Zrotation Xrotation Yrotation
                        End Site LeftWristEndSite
                        {
                            OFFSET 9.596583366394043 0.0 0.0
                        }
                    }
                }
            }
            JOINT RightArm
            {
                OFFSET -16.194419860839844 0.0 0.0
                CHANNELS 3 Zrotation Xrotation Yrotation
                JOINT RightForeArm
                {
                    OFFSET -28.731082916259766 0.0 0.0
                    CHANNELS 3 Zrotation Xrotation Yrotation
                    JOINT RightHand
                    {
                        OFFSET -23.991458892822266 0.0 0.0
                        CHANNELS 3 Zrotation Xrotation Yrotation
                        End Site RightWristEndSite
                        {
                            OFFSET -9.596583366394043 0.0 0.0
                        }
                    }
                }
            }
        }
    }
}
MOTION
Frames: 7
Frame Time: 0.03333333333333333
-0.0 83.22667694091797 0.0 -6.120062446675451 -7.023441362510589 3.023633470585171 7.852363782786718 1.9014524613784767 -6.859643886975187 6.963197668651097 22.013882480099284 -4.921763975141789 0.0 0.0 3.9756933518293955e-16 10.77067347135445 13.605351158170102 4.084595758532229 8.036907334870449 15.96683736064134 -5.135143434754061 -1.1034765745125397e-32 -3.1805546814635176e-15 -3.975693351829397e-16 -5.0863928045404565 -14.478286640364521 -70.00545817751686 -7.420116966618695e-07 -3.913941869246831e-07 51.72623739172532 4.263274329574958 3.3568108703219472 -12.53422913295352 -101.36812218365839 -42.59657468713533 -43.66149740627729 -102.77628770802261 1.0787342838840755e-06 -1.4491265439965633e-06 0.0 0.0 -3.1805546814635176e-15 108.58288687931548 -57.410609501750386 65.07537845842397 106.02158936027281 -2.338333929689021e-06 -5.737760103896915e-06 1.987846675914698e-15 -6.3611093629270335e-15 1.1034765745125397e-31
-0.0 83.22667694091797 0.0 -6.521627032982623 -7.030335697143453 2.6830369021199476 8.204041456655904 1.8478024695012387 -6.928236572731319 6.6445944359014595 21.676491295604926 -4.724515439536799 1.5902773407317588e-15 -8.276074308844047e-33 -5.963540027744096e-16 11.208444318426075 13.825350263292558 4.110957490789314 7.94090154785737 15.972638258672067 -5.139191985022542 0.0 0.0 0.0 -4.903972364476834 -14.489128747731048 -74.27020433846018 -3.5551474095537207e-06 3.389418706166573e-06 55.80672923066467 4.847322770725279 3.285869144990537 -13.078174805325757 -99.47697272107042 -44.167198930436435 -43.06676191327445 -104.9898605263755 3.906848377047591e-06 -1.895367947181934e-06 -1.7655625192200634e-31 -6.361109362927035e-15 -3.1805546814635176e-15 106.78461639775733 -58.30771492854614 63.54079945497605 107.17368606100848 -7.155886923056672e-07 -2.5766495301261265e-06 3.180554681463516e-15 0.0 0.0
-0.0 83.22667694091797 0.0 -5.726274233584865 -6.738324613307662 4.8670898073356925 6.785079353157617 0.9238909239065568 -6.693357929786628 8.227114837893918 22.05173143964886 -4.954202861029216 1.5902773407317584e-15 1.3793457181406746e-32 9.93923337957349e-16 11.049826986494567 13.508625904725163 4.00971416005003 8.044792972913143 15.632830978693244 -5.054848445718274 -1.5902773407317584e-15 -1.1034765745125397e-32 7.951386703658792e-16 -5.599590800283487 -14.305564869674392 -71.31128661859805 -4.018803952329458e-07 1.1687953505087113e-06 52.19707271891196 4.101477235546156 3.175790268200015 -12.723465145889456 -99.93983894294138 -43.73545461053102 -42.60508053829353 -105.32719092604347 6.770223204707014e-07 1.736225127629787e-06 0.0 0.0 -3.1805546814635168e-15 109.00073462317623 -59.30373510348442 65.88924258918745 107.0870340548257 -3.5887331711980487e-07 -2.058462685183181e-06 -2.3854160110976376e-15 -1.3241718894150476e-31 6.3611093629270335e-15
-0.0 83.22667694091797 0.0 -5.782724917755574 -6.837122721904616 3.286708102860396 6.826963682340515 1.2054082192440752 -6.938442048232874 7.510040016525206 22.321055333515925 -4.68981926152789 -8.620910738379216e-35 -4.9696166897867443e-17 -1.9878466759146977e-16 10.76077071000383 13.95397045468772 4.2490750933444135 7.687035650861495 15.820013375324983 -4.913299367550017 -1.5902773407317588e-15 -5.517382872562698e-33 3.975693351829397e-16 -5.337292824680071 -14.599910931090646 -67.82359093872715 3.746733161782649e-06 -6.841869754224472e-09 49.68669753141727 4.188402621236051 3.545998427783688 -13.608605564207096 -98.60668266316114 -44.22643848574511 -42.55138191298497 -105.87357938064984 3.3231010757031413e-06 -5.897687106554324e-06 -1.7655625192200634e-31 -6.361109362927033e-15 -3.1805546814635164e-15 105.38314024996849 -60.08941209580788 62.78650393000853 109.0253126702225 -1.9636655319439085e-06 1.835026835488014e-07 2.3854160110976376e-15 0.0 0.0
-0.0 83.22667694091797 0.0 -6.2059956210685625 -6.961732701208854 1.8960949403775231 7.990015614439667 2.1279516585019467 -7.190045264695885 6.460315125156664 22.439978101371675 -4.817754527309669 1.5902773407317588e-15 -5.517382872562698e-33 -3.975693351829397e-16 10.675772024702068 14.785771863876192 4.201947611471238 8.129574441016347 15.97064514690833 -5.15315940355211 -1.5902773407317584e-15 -4.9696166897867443e-17 -3.975693351829396e-16 -4.522010395696178 -14.028644939226556 -73.72011510171781 2.6504634919238695e-06 -1.5586171234266733e-06 56.61643992023769 4.617533951677079 3.0366653895125775 -13.42724795687999 -101.99596993924919 -43.30163584969019 -44.83523206783893 -103.03933889616283 9.470642241832416e-07 -1.09775640552626e-06 -3.1805546814635164e-15 8.827812596100317e-32 -3.1805546814635164e-15 107.48501302103658 -57.26515344279763 65.04611007197917 106.25463323072469 -5.78508625115004e-07 3.13680219839951e-06 0.0 0.0 0.0
-0.0 83.22667694091797 0.0 -6.432236280725027 -7.092179249680866 1.798026390330925 7.089656780804315 0.9506089860249067 -6.901443805616832 7.315300160368449 23.27387824331485 -4.920824795326551 5.344964657795114e-33 -3.0811623476677814e-15 1.9878466759146977e-16 10.750978937624204 13.74272602938888 4.323003740118928 7.710366314534962 16.771736048089817 -5.200234631577169 0.0 -3.1805546814635168e-15 0.0 -4.738023078196855 -14.900273224592786 -68.24138149120301 -2.2431180836366327e-06 6.506254784631171e-07 49.5651162720733 4.685490600758859 3.9817120904214165 -11.991513175383396 -98.76447796484466 -47.04351606583048 -41.92348126013881 -106.2608147997667 -4.503378397442022e-06 -2.784811933020973e-06 -1.7655625192200634e-31 6.3611093629270335e-15 3.1805546814635168e-15 104.57764080974994 -59.47567031102384 61.875513772710875 109.08371676770903 -3.916191801016833e-06 -1.3260095440158302e-06 -2.385416011097638e-15 -6.3611093629270335e-15 -6.3611093629270335e-15
-0.0 83.22667694091797 0.0 -6.678425307098216 -7.349326366776055 -0.3987779911584802 8.313014217272649 2.753092477873598 -7.150507261345347 5.871869735783768 23.380654457163086 -4.667162967117429 0.0 0.0 -3.975693351829396e-16 9.91728724119 14.193789054906626 4.606978872955033 8.477723333789111 17.097001027508774 -5.180706104739384 0.0 2.4848083448933725e-17 0.0 -4.1017893755665655 -14.826013025808487 -68.72906926045559 2.9489318624822205e-06 -5.85445977159028e-07 52.61098952851743 4.755508850303948 3.625396202614706 -11.607573326246015 -99.37345578970707 -46.05176335671609 -43.110608642104296 -106.25795184852245 -4.946049405917577e-06 5.564275786257836e-06 -3.1805546814635168e-15 -8.827812596100317e-32 3.1805546814635168e-15 105.48109375849731 -58.0908380923055 63.15076784067763 107.77699074627931 -6.982541099542084e-07 -1.8125031532407506e-06 -3.1805546814635168e-15 -6.3611093629270335e-15 -1.7655625192200634e-31
